<?xml version="1.0" standalone="no"?>
<!DOCTYPE svg PUBLIC "-//W3C//DTD SVG 1.1//EN" "http://www.w3.org/Graphics/SVG/1.1/DTD/svg11.dtd" >
<!--
2013-9-30: Created.
-->
<svg>
<metadata>
Created by iconfont
</metadata>
<defs>

<font id="iconfont" horiz-adv-x="1024" >
  <font-face
    font-family="iconfont"
    font-weight="500"
    font-stretch="normal"
    units-per-em="1024"
    ascent="896"
    descent="-128"
  />
    <missing-glyph />
    
    <glyph glyph-name="x" unicode="x" horiz-adv-x="1001"
d="M281 543q-27 -1 -53 -1h-83q-18 0 -36.5 -6t-32.5 -18.5t-23 -32t-9 -45.5v-76h912v41q0 16 -0.5 30t-0.5 18q0 13 -5 29t-17 29.5t-31.5 22.5t-49.5 9h-133v-97h-438v97zM955 310v-52q0 -23 0.5 -52t0.5 -58t-10.5 -47.5t-26 -30t-33 -16t-31.5 -4.5q-14 -1 -29.5 -0.5
t-29.5 0.5h-32l-45 128h-439l-44 -128h-29h-34q-20 0 -45 1q-25 0 -41 9.5t-25.5 23t-13.5 29.5t-4 30v167h911zM163 247q-12 0 -21 -8.5t-9 -21.5t9 -21.5t21 -8.5q13 0 22 8.5t9 21.5t-9 21.5t-22 8.5zM316 123q-8 -26 -14 -48q-5 -19 -10.5 -37t-7.5 -25t-3 -15t1 -14.5
t9.5 -10.5t21.5 -4h37h67h81h80h64h36q23 0 34 12t2 38q-5 13 -9.5 30.5t-9.5 34.5q-5 19 -11 39h-368zM336 498v228q0 11 2.5 23t10 21.5t20.5 15.5t34 6h188q31 0 51.5 -14.5t20.5 -52.5v-227h-327z" />
    

    
    <glyph glyph-name="doublearrowleft" unicode="&#58914;" d="M896 556 768 556 512 300 768 44 896 44 640 300 896 556 896 556ZM512 556 384 556 128 300 384 44 512 44 256 300 512 556 512 556Z"  horiz-adv-x="1024" />

    
    <glyph glyph-name="user" unicode="&#59662;" d="M917.965523-21.331585c0-22.469758-17.891486-40.699957-39.913035-40.699957-22.058388 0-39.913035 18.2302-39.913035 40.699957l-0.075725 0.490164-1.087774 0c-18.945491 157.665903-148.177807 280.296871-306.821991 285.4748-3.412726-0.151449-6.751774-0.562818-10.240225-0.562818-3.450589 0-6.789637 0.410346-10.202363 0.524956-158.606321-5.139044-287.839661-127.806851-306.784128-285.436938l-1.014096 0 0.075725-0.490164c0-22.469758-17.854647-40.699957-39.913035-40.699957s-39.915082 18.2302-39.915082 40.699957l-0.373507 3.789303c0 6.751774 2.026146 12.903891 4.91494 18.531052 21.082154 140.712789 111.075795 258.241552 235.432057 312.784796C288.420387 365.168096 239.989351 451.484997 239.989351 549.395958c0 157.591201 125.33352 285.361213 279.924387 285.361213 154.62873 0 279.960203-127.770012 279.960203-285.361213 0-97.873098-48.391127-184.15316-122.103966-235.545644 124.843356-54.732555 215.099986-172.863023 235.808634-314.211285 2.437515-5.290493 4.01443-10.992355 4.01443-17.181311L917.965523-21.331585zM719.822744 549.320233c0 112.576985-89.544409 203.808826-199.983707 203.808826-110.402459 0-199.944821-91.232864-199.944821-203.808826s89.542362-203.808826 199.944821-203.808826C630.278335 345.511407 719.822744 436.743248 719.822744 549.320233z"  horiz-adv-x="1024" />

    
    <glyph glyph-name="caret4" unicode="&#58926;" d="M911.191671 581.712219c-7.231123 7.238137-15.808877 10.857205-25.712219 10.857205s-18.481096-3.619068-25.712219-10.857205l-256-256c-7.238137-7.238137-10.857205-15.808877-10.857205-25.712219s3.619068-18.481096 10.857205-25.712219l256-256c7.231123-7.238137 15.808877-10.864219 25.712219-10.864219s18.481096 3.626082 25.712219 10.864219c7.238137 7.231123 10.864219 15.808877 10.864219 25.712219l0 512C922.05589 565.903342 918.429808 574.474082 911.191671 581.712219z"  horiz-adv-x="1515" />

    
    <glyph glyph-name="caret5" unicode="&#58927;" d="M1039.191671 453.719233c-7.231123 7.238137-15.808877 10.857205-25.712219 10.857205l-512 0c-9.910356 0-18.481096-3.619068-25.719233-10.857205-7.238137-7.245151-10.857205-15.81589-10.857205-25.719233s3.619068-18.474082 10.857205-25.712219l256-256c7.245151-7.238137 15.81589-10.864219 25.719233-10.864219s18.481096 3.626082 25.712219 10.864219l256 256c7.231123 7.238137 10.864219 15.808877 10.864219 25.712219S1046.422795 446.474082 1039.191671 453.719233z"  horiz-adv-x="1515" />

    
    <glyph glyph-name="pictureo" unicode="&#59018;" d="M288 365c26.667 0 49.333 9.333 68 28 18.667 18.667 28 41.333 28 68s-9.333 49.333-28 68-41.333 28-68 28c-26.667 0-49.333-9.333-68-28s-28-41.333-28-68 9.333-49.333 28-68C238.667 374.333 261.333 365 288 365zM670.625 416.582c-14.983 16.254-39.199 16.194-54.102-0.119L411 191.5l-52.031 53.497c-11.547 11.873-31.729 13.538-45.067 3.709L204.672 168.22c-6.67-4.915-12.074-15.609-12.074-23.89l0-59.907c0-22.101 17.911-40.007 40.005-40.007l559.991 0c22.093 0 40.005 17.904 40.005 39.991L832.599 225.859c0 8.288-4.552 19.945-10.167 26.036L670.625 416.582zM863.005 683l-700.01 0C108.879 683 65 639.125 65 585.001l0-572.002C65-41.125 108.874-85 162.995-85l700.01 0C917.12-85 961-41.124 961 12.999L961 585.001C961 639.125 917.126 683 863.005 683zM897 43c0-35.346-28.647-64-63.994-64L192.994-21C157.651-21 129 7.651 129 43L129 555c0 35.347 28.647 64 63.994 64l640.012 0C868.349 619 897 590.349 897 555L897 43z"  horiz-adv-x="1024" />

    
    <glyph glyph-name="menu" unicode="&#58893;" d="M915.484006 352.699246 108.813776 352.699246c-26.204825 0-47.451732-21.223371-47.451732-47.451732 0-26.180266 21.245883-47.451732 47.451732-47.451732L915.484006 257.795782c26.204825 0 47.450708 21.270443 47.450708 47.451732C962.934714 331.475875 941.688831 352.699246 915.484006 352.699246zM108.813776 542.504126 915.484006 542.504126c26.204825 0 47.450708 21.270443 47.450708 47.451732 0 26.228361-21.245883 47.451732-47.450708 47.451732L108.813776 637.40759c-26.204825 0-47.451732-21.222347-47.451732-47.451732C61.363068 563.773546 82.608951 542.504126 108.813776 542.504126zM915.484006 67.991925 108.813776 67.991925c-26.204825 0-47.451732-21.223371-47.451732-47.451732 0-26.180266 21.245883-47.451732 47.451732-47.451732L915.484006-26.911538c26.204825 0 47.450708 21.271466 47.450708 47.451732C962.934714 46.768555 941.688831 67.991925 915.484006 67.991925z"  horiz-adv-x="1024" />

    
    <glyph glyph-name="filetexto" unicode="&#60092;" d="M911.989715 678.854368q16.017142-16.017142 27.426612-43.443754t11.409471-50.318692l0-658.238697q0-22.818942-16.017142-38.836083t-38.836083-16.017142l-767.945147 0q-22.818942 0-38.836083 16.017142t-16.017142 38.836083l0 914.220413q0 22.818942 16.017142 38.836083t38.836083 16.017142l511.963431 0q22.818942 0 50.318692-11.409471t43.443754-27.426612zM658.275266 818.327834l0-214.805228 214.805228 0q-5.704735 16.602243-12.579673 23.404043l-178.821513 178.821513q-6.874938 6.874938-23.404043 12.579673zM877.688165-54.789229l0 585.101064-237.697307 0q-22.818942 0-38.836083 16.017142t-16.017142 38.836083l0 237.697307-438.825798 0 0-877.651596 731.37633 0zM292.587101 438.889794q0 7.972002 5.119634 13.164774t13.164774 5.119634l402.256982 0q7.972002 0 13.164774-5.119634t5.119634-13.164774l0-36.568817q0-7.972002-5.119634-13.164774t-13.164774-5.119634l-402.256982 0q-7.972002 0-13.164774 5.119634t-5.119634 13.164774l0 36.568817zM713.128491 310.898936q7.972002 0 13.164774-5.119634t5.119634-13.164774l0-36.568817q0-7.972002-5.119634-13.164774t-13.164774-5.119634l-402.256982 0q-7.972002 0-13.164774 5.119634t-5.119634 13.164774l0 36.568817q0 7.972002 5.119634 13.164774t13.164774 5.119634l402.256982 0zM713.128491 164.62367q7.972002 0 13.164774-5.119634t5.119634-13.164774l0-36.568817q0-7.972002-5.119634-13.164774t-13.164774-5.119634l-402.256982 0q-7.972002 0-13.164774 5.119634t-5.119634 13.164774l0 36.568817q0 7.972002 5.119634 13.164774t13.164774 5.119634l402.256982 0z"  horiz-adv-x="1024" />

    
    <glyph glyph-name="location" unicode="&#58921;" d="M512 792.307692c-196.923077 0-354.461538-165.415385-354.461538-370.215385 0-204.8 354.461538-614.4 354.461538-614.4s354.461538 409.6 354.461538 614.4C866.461538 626.892308 708.923077 792.307692 512 792.307692L512 792.307692zM512 177.907692c-129.969231 0-236.307692 110.276923-236.307692 248.123077 0 137.846154 106.338462 244.184615 236.307692 244.184615 129.969231 0 236.307692-110.276923 236.307692-244.184615C748.307692 288.184615 645.907692 177.907692 512 177.907692L512 177.907692zM512 575.692308C433.230769 575.692308 366.276923 504.8 366.276923 422.092308c0-86.646154 66.953846-153.6 145.723077-153.6 82.707692 0 149.661538 66.953846 149.661538 153.6C661.661538 504.8 594.707692 575.692308 512 575.692308L512 575.692308zM512 575.692308"  horiz-adv-x="1024" />

    
    <glyph glyph-name="caret6" unicode="&#58929;" d="M1039.191671 197.712219l-256 256c-7.231123 7.238137-15.801863 10.857205-25.712219 10.857205s-18.481096-3.619068-25.719233-10.857205l-256-256c-7.238137-7.238137-10.857205-15.808877-10.857205-25.712219s3.619068-18.481096 10.857205-25.712219c7.245151-7.238137 15.81589-10.857205 25.719233-10.857205l512 0c9.903342 0 18.481096 3.619068 25.712219 10.857205 7.231123 7.231123 10.864219 15.808877 10.864219 25.712219S1046.422795 190.474082 1039.191671 197.712219z"  horiz-adv-x="1515" />

    
    <glyph glyph-name="loading" unicode="&#60175;" d="M512 921.1 512 921.1c0-19.5 15-35.8 34.4-37.3 46.9-3.6 92.4-14.7 135.7-33 52.1-22 98.8-53.5 139-93.7s71.7-86.9 93.7-139c18.3-43.3 29.4-88.8 33-135.7 1.5-19.4 17.8-34.4 37.3-34.4l0 0c21.7 0 39 18.5 37.3 40.1C1003 738.9 802.9 939 552.1 958.4 530.5 960.1 512 942.9 512 921.1z"  horiz-adv-x="1024" />

    
    <glyph glyph-name="arrowsrightdouble31" unicode="&#58994;" d="M484.688 560.688 745.376 300 484.688 39.312 509.664 16.688 784 288.688 784 311.312 509.664 583.312ZM544 311.312 269.664 583.312 245.856 560.688 505.968 300 244.992 39.312 269.808 16.688 544 288.688Z"  horiz-adv-x="1024" />

    
    <glyph glyph-name="star1" unicode="&#58892;" d="M1002.736941 473.328941l-374.964706 0-115.772235 356.592941-115.832471-356.592941-374.904471 0 303.284706-220.340706-115.772235-356.592941 303.224471 220.400941 303.284706-220.400941-115.772235 356.592941 303.224471 220.340706zM700.717176 54.091294l-188.717176 137.216-188.717176-137.155765 72.101647 221.967059-188.717176 136.975059 233.291294 0 72.041412 221.906824 72.041412-221.906824 233.291294 0-188.717176-137.035294 72.101647-221.967059z"  horiz-adv-x="1024" />

    
    <glyph glyph-name="warn" unicode="&#59066;" d="M512-128c282.77 0 512 229.23 512 512s-229.23 512-512 512c-282.77 0-512-229.23-512-512 0-282.77 229.23-512 512-512zM448 704h128v-384h-128v384zM448 192h128v-128h-128v128z"  horiz-adv-x="1024" />

    
    <glyph glyph-name="lock" unicode="&#59090;" d="M780.024359 428.668339l-472.777697 0 0 0.004093-18.60473 0 0 89.340771c0 123.356492 99.999528 223.357044 223.352951 223.357044 101.735056 0 187.56384-68.023256 214.528981-161.062256 2.357697-22.454408 21.347191-39.957037 44.423769-39.957037 24.669866 0 44.672432 20.001543 44.672432 44.672432 0 4.318352-0.626263 8.485255-1.76725 12.438287l0.596588 0.188288C779.228227 731.770612 657.172357 830.709995 511.995907 830.709995c-172.695201 0-312.697815-139.996474-312.697815-312.695768l0-98.648764c-39.437198-17.232476-67.001997-56.5786-67.001997-102.374622l0-268.024359c0-61.677734 50.001811-111.675452 111.678522-111.675452l536.049742 0c61.676711 0 111.678522 49.997718 111.678522 111.675452L891.702881 316.989817C891.702881 378.670621 841.705164 428.668339 780.024359 428.668339L780.024359 428.668339zM802.359041 71.303208c0-24.669866-20.001543-44.672432-44.672432-44.672432L266.309298 26.630776c-24.670889 0-44.672432 20.001543-44.672432 44.672432L221.636866 294.656159c0 24.670889 20.00052 44.673455 44.672432 44.673455l491.37731 0c24.673959 0 44.672432-20.001543 44.672432-44.673455L802.359041 71.303208 802.359041 71.303208zM802.359041 71.303208"  horiz-adv-x="1024" />

    
    <glyph glyph-name="duihao" unicode="&#58962;" d="M365.9 14.1 365.9 14.1c-18.6-19.4-49.6-20-69-1.4L15 283c-19.4 18.6-20 49.6-1.4 69l0 0c18.6 19.4 49.6 20 69 1.4l281.9-270.3C383.8 64.5 384.5 33.5 365.9 14.1zM296.9 12.7 296.9 12.7c-19.4 18.6-20 49.6-1.4 69L940 753.9c18.6 19.4 49.6 20 69 1.4l0 0c19.4-18.6 20-49.6 1.4-69L365.9 14.1C347.3-5.3 316.2-5.9 296.9 12.7z"  horiz-adv-x="1024" />

    
    <glyph glyph-name="email" unicode="&#59103;" d="M33.072 736c6.4-0.672 12.816-1.216 19.2-1.216 306.48-0.192 612.96-0.192 919.44 0 6.384 0 12.784 0.544 19.2 1.216C1000.896 732.176 1008 722.512 1008 711.168l0-2.768c-13.76-9.328-28.864-17.104-41.04-28.16-124.736-113.488-249.072-227.408-373.392-341.36-60.016-55.024-102.848-55.072-163.072 0.08-123.488 113.04-246.896 226.16-370.768 338.768C46.656 689.632 32 698.256 16 708.416l0 2.768C16 722.512 23.088 732.176 33.072 736M309.008 335.856c17.472 15.36 30.336 15.216 46.288-1.856 15.824-16.928 34.064-31.6 51.504-46.992 68.064-59.92 143.104-59.648 211.232 0.784 22.768 20.192 45.312 40.608 70.8 63.488 70.048-57.936 138.432-114.896 207.312-171.264C932.992 149.856 976 120.736 1008 91.152l0-39.504C1008 36.928 996.08 32 981.36 32L42.64 32C27.92 32 16 36.928 16 51.648l0 46.848c61.072 48.496 122.352 96.704 183.104 145.6C236.272 274.032 273.2 304.352 309.008 335.856M1008 640l0-482.704c-91.616 76.384-183.216 152.768-278.752 232.448C825.264 476.72 916.624 558.352 1008 641.136M16 176 16 642.256c91.168-82.608 182.32-165.232 276.528-250.608C197.2 313.392 106.608 244.688 16 170.32"  horiz-adv-x="1024" />

    
    <glyph glyph-name="sum" unicode="&#58992;" d="M903.831107 209.853751 599.072101 209.853751c-24.043602 0-43.536562 19.491936-43.536562 43.536562 0 24.043602 19.493983 43.536562 43.536562 43.536562l304.757982 0c24.045649 0 43.536562-19.493983 43.536562-43.536562C947.367669 229.345688 927.875732 209.853751 903.831107 209.853751zM194.116069 4.546805c-17.003256-17.001209-44.569078-17.001209-61.570287 0-17.003256 17.003256-17.003256 44.567032 0 61.572334l697.337125 697.335079c17.001209 17.001209 44.567032 17.001209 61.570287 0 17.001209-17.003256 17.001209-44.567032 0-61.570287L194.116069 4.546805zM424.924829 536.380526 316.082912 536.380526l0-108.843964c0-24.043602-19.491936-43.534516-43.536562-43.534516-24.045649 0-43.536562 19.491936-43.536562 43.534516L229.009787 536.380526 120.166847 536.380526c-24.043602 0-43.534516 19.491936-43.534516 43.534516 0 24.047696 19.491936 43.536562 43.534516 43.536562l108.841917 0L229.008764 732.294544c0 24.045649 19.491936 43.538609 43.536562 43.538609 24.045649 0 43.536562-19.493983 43.536562-43.538609l0-108.841917 108.841917 0c24.045649 0 43.538609-19.488867 43.538609-43.536562C468.464461 555.871439 448.970478 536.380526 424.924829 536.380526zM599.072101 122.779603l304.757982 0c24.045649 0 43.536562-19.493983 43.536562-43.536562 0-24.045649-19.491936-43.536562-43.536562-43.536562L599.072101 35.706479c-24.043602 0-43.536562 19.491936-43.536562 43.536562C555.535539 103.286644 575.029522 122.779603 599.072101 122.779603z"  horiz-adv-x="1024" />

    
    <glyph glyph-name="edit" unicode="&#58894;" d="M842.496-36.48 90.677333-36.48 90.677333 701.402667 616.826667 701.402667 699.728 786.826667 45.776 786.826667C21.6 786.826667 2.032 767.509333 2.032 743.573333L2.032-79.792C2.032-103.664 21.6-123.04 45.776-123.04L883.941333-123.04C908.117333-123.04 927.674667-103.669333 927.674667-79.792L927.674667 529.488 839.013333 444.064 842.496-36.48M770.122667 778.005333 924.992 623.125333 482.128 182.165333 327.237333 337.061333 770.122667 778.005333M296.512 300.576 451.392 145.706667 207.28 69.130667 296.512 300.576M1039.365333 785.914667 942.56 882.730667C926.501333 898.741333 899.648 897.882667 882.522667 880.768L882.522667 880.773333 817.557333 816.704 972.453333 661.818667 1037.184 725.653333C1037.264 725.733333 1037.349333 725.808 1037.429333 725.888 1054.533333 743.002667 1055.386667 769.904 1039.365333 785.914667"  horiz-adv-x="1056" />

    
    <glyph glyph-name="close" unicode="&#58940;" d="M574.85863 384l298.588469 298.588469c17.359366 17.35732 17.359366 45.500287 0 62.859653-17.35732 17.359366-45.500287 17.359366-62.859653 0L511.998977 446.860676 213.410508 745.449145c-17.35732 17.359366-45.500287 17.359366-62.859653 0-17.35732-17.359366-17.35732-45.502333 0-62.859653l298.588469-298.588469L150.549831 85.411531c-17.35732-17.359366-17.35732-45.502333 0-62.859653 17.359366-17.359366 45.502333-17.359366 62.859653 0l298.588469 298.588469 298.588469-298.588469c17.359366-17.359366 45.502333-17.359366 62.859653 0 17.359366 17.35732 17.359366 45.500287 0 62.859653L574.85863 384z"  horiz-adv-x="1024" />

    
    <glyph glyph-name="calendar" unicode="&#58899;" d="M107.352411-54.857143l164.571429 0 0 164.571429-164.571429 0 0-164.571429zM308.495269-54.857143l182.857143 0 0 164.571429-182.857143 0 0-164.571429zM107.352411 146.285714l164.571429 0 0 182.857143-164.571429 0 0-182.857143zM308.495269 146.285714l182.857143 0 0 182.857143-182.857143 0 0-182.857143zM107.352411 365.714286l164.571429 0 0 164.571429-164.571429 0 0-164.571429zM527.92384-54.857143l182.857143 0 0 164.571429-182.857143 0 0-164.571429zM308.495269 365.714286l182.857143 0 0 164.571429-182.857143 0 0-164.571429zM747.352411-54.857143l164.571429 0 0 164.571429-164.571429 0 0-164.571429zM527.92384 146.285714l182.857143 0 0 182.857143-182.857143 0 0-182.857143zM326.780983 640l0 164.571429q0 7.424-5.430857 12.854857t-12.854857 5.430857l-36.571429 0q-7.424 0-12.854857-5.430857t-5.430857-12.854857l0-164.571429q0-7.424 5.430857-12.854857t12.854857-5.430857l36.571429 0q7.424 0 12.854857 5.430857t5.430857 12.854857zM747.352411 146.285714l164.571429 0 0 182.857143-164.571429 0 0-182.857143zM527.92384 365.714286l182.857143 0 0 164.571429-182.857143 0 0-164.571429zM747.352411 365.714286l164.571429 0 0 164.571429-164.571429 0 0-164.571429zM765.638126 640l0 164.571429q0 7.424-5.430857 12.854857t-12.854857 5.430857l-36.571429 0q-7.424 0-12.854857-5.430857t-5.430857-12.854857l0-164.571429q0-7.424 5.430857-12.854857t12.854857-5.430857l36.571429 0q7.424 0 12.854857 5.430857t5.430857 12.854857zM985.066697 676.571429l0-731.428571q0-29.714286-21.705143-51.437714t-51.437714-21.705143l-804.571429 0q-29.714286 0-51.437714 21.705143t-21.705143 51.437714l0 731.428571q0 29.714286 21.705143 51.437714t51.437714 21.705143l73.142857 0 0 54.857143q0 37.705143 26.861714 64.566857t64.566857 26.861714l36.571429 0q37.705143 0 64.566857-26.861714t26.861714-64.566857l0-54.857143 219.428571 0 0 54.857143q0 37.705143 26.861714 64.566857t64.566857 26.861714l36.571429 0q37.705143 0 64.566857-26.861714t26.861714-64.566857l0-54.857143 73.142857 0q29.714286 0 51.437714-21.705143t21.705143-51.437714z"  horiz-adv-x="1024" />

    
    <glyph glyph-name="settings" unicode="&#58953;" d="M972.337759 490.379432l-98.014308 19.641248c-4.926307 14.171129-10.748305 27.9264-17.178095 41.233826l55.532911 83.299366c16.922183 25.36728 13.563338 59.179657-7.997251 80.708257l-61.546843 61.546843c-12.379744 12.379744-28.726125 18.745556-45.296429 18.745556-12.251788 0-24.631533-3.51879-35.411827-10.748305l-83.299366-55.500922c-13.371404 6.461779-27.126675 12.219799-41.297804 17.146106l-19.641248 98.046297c-5.949955 29.941708-32.244916 51.438318-62.730436 51.438318l-87.01009 0c-30.485521 0-56.748493-21.5286-62.730436-51.438318l-19.641248-98.046297c-14.171129-4.926307-27.9264-10.716316-41.233826-17.146106l-83.267377 55.500922c-10.844272 7.229515-23.192028 10.748305-35.475805 10.748305-16.538315 0-32.884696-6.365812-45.26444-18.745556l-61.514854-61.546843c-21.560589-21.560589-24.919434-55.340977-7.997251-80.708257l55.500922-83.299366c-6.461779-13.339415-12.219799-27.094686-17.146106-41.265815l-98.078286-19.609259c-29.909719-5.981944-51.438318-32.244916-51.438318-62.730436l0-87.01009c0-30.485521 21.5286-56.780482 51.438318-62.730436l98.046297-19.673237c4.926307-14.171129 10.716316-27.9264 17.146106-41.233826l-55.468933-83.299366c-16.922183-25.36728-13.563338-59.179657 7.997251-80.708257l61.546843-61.546843c12.379744-12.379744 28.726125-18.745556 45.26444-18.745556 12.283777 0 24.663522 3.550779 35.443816 10.748305l83.299366 55.532911c13.339415-6.493768 27.094686-12.251788 41.265815-17.178095l19.609259-98.014308c5.981944-29.941708 32.244916-51.470307 62.730436-51.470307l87.01009 0c30.485521 0 56.780482 21.560589 62.730436 51.470307l19.673237 98.014308c14.171129 4.926307 27.9264 10.748305 41.233826 17.178095l83.299366-55.532911c10.812283-7.197526 23.192028-10.748305 35.411827-10.748305 16.570304 0 32.916685 6.365812 45.296429 18.745556l61.546843 61.546843c21.560589 21.560589 24.919434 55.340977 7.997251 80.708257l-55.532911 83.299366c6.493768 13.371404 12.251788 27.126675 17.178095 41.297804l98.014308 19.609259c29.909719 5.917966 51.470307 32.244916 51.470307 62.730436l0 87.01009c0 30.485521-21.560589 56.748493-51.470307 62.730436zM861.751773 320.997657c-22.232358-4.446472-40.434101-20.313017-47.85555-41.74565-4.126581-11.803942-8.924932-23.256006-14.299085-34.35619-9.94858-20.440973-8.253163-44.560682 4.318516-63.402205l55.532911-83.299366-61.546843-61.546843-83.299366 55.532911c-10.684327 7.133548-23.064072 10.748305-35.475805 10.748305-9.500734 0-19.065446-2.111274-27.862422-6.365812-11.132173-5.374153-22.552248-10.236481-34.420168-14.363063-21.368655-7.421449-37.2352-25.623192-41.681672-47.85555l-19.673237-98.078286-87.01009 0-19.609259 98.078286c-4.446472 22.232358-20.313017 40.434101-41.713661 47.85555-11.803942 4.126581-23.287995 8.924932-34.388179 14.299085-8.828965 4.318516-18.361688 6.42979-27.894411 6.42979-12.443722 0-24.791478-3.614757-35.475805-10.748305l-83.299366-55.532911-61.546843 61.546843 55.500922 83.299366c12.571678 18.873512 14.203118 42.993221 4.382494 63.338227-5.374153 11.132173-10.204492 22.552248-14.331074 34.420168-7.421449 21.368655-25.655181 37.2352-47.85555 41.681672l-98.046297 19.673237-0.063978 87.042079 98.078286 19.609259c22.200369 4.446472 40.434101 20.313017 47.85555 41.713661 4.126581 11.803942 8.892943 23.287995 14.299085 34.388179 9.916591 20.408984 8.253163 44.528693-4.350505 63.370216l-55.468933 83.299366 61.514854 61.546843 83.299366-55.500922c10.684327-7.133548 23.064072-10.748305 35.475805-10.748305 9.500734 0 19.033457 2.111274 27.862422 6.365812 11.100184 5.374153 22.552248 10.204492 34.388179 14.331074 21.400644 7.421449 37.267189 25.655181 41.713661 47.85555l19.641248 98.046297 87.01009 0.031989 19.609259-98.078286c4.446472-22.200369 20.313017-40.434101 41.74565-47.85555 11.803942-4.126581 23.256006-8.892943 34.35619-14.299085 8.860954-4.286527 18.361688-6.397801 27.9264-6.397801 12.443722 0 24.791478 3.614757 35.475805 10.748305l83.299366 55.500922 61.546843-61.546843-55.532911-83.299366c-12.571678-18.873512-14.171129-42.961232-4.382494-63.338227 5.374153-11.100184 10.236481-22.552248 14.363063-34.388179 7.421449-21.400644 25.623192-37.267189 47.85555-41.713661l98.014308-19.641248 0.095967-87.01009-98.078286-19.641248zM511.984005 608.066977c-123.6375 0-223.923026-100.285527-223.923026-223.923026 0-123.669489 100.285527-223.923026 223.923026-223.923026s223.923026 100.285527 223.923026 223.923026c0 123.6375-100.285527 223.923026-223.923026 223.923026zM511.984005 188.179313c-108.186811 0-195.932648 87.777826-195.932648 195.932648s87.745837 195.932648 195.932648 195.932648c108.154822 0 195.932648-87.745837 195.932648-195.932648 0-108.154822-87.777826-195.932648-195.932648-195.932648zM511.984005 512.099966c-70.695698 0-127.956015-57.260317-127.956015-127.956015s57.260317-127.956015 127.956015-127.956015c70.663709 0 127.956015 57.292306 127.956015 127.956015s-57.292306 127.956015-127.956015 127.956015zM511.984005 288.14495c-52.97379 0-95.967011 42.993221-95.967011 95.967011s42.993221 95.967011 95.967011 95.967011 95.967011-42.993221 95.967011-95.967011c0-52.97379-42.993221-95.967011-95.967011-95.967011z"  horiz-adv-x="1024" />

    
    <glyph glyph-name="download1" unicode="&#59587;" d="M213.333333 512C187.733333 512 170.666667 529.066667 170.666667 554.666667c0 166.4 132.266667 298.666667 298.666667 298.666667 128 0 243.2-85.333333 285.866667-209.066667C759.466667 622.933333 750.933333 597.333333 725.333333 593.066667c-21.333333-8.533333-46.933333 4.266667-55.466667 25.6C644.266667 708.266667 563.2 768 469.333333 768 349.866667 768 256 674.133333 256 554.666667 256 529.066667 238.933333 512 213.333333 512zM768 170.666667c-25.6 0-42.666667 17.066667-42.666667 42.666667s17.066667 42.666667 42.666667 42.666667c93.866667 0 170.666667 76.8 170.666667 170.666667s-76.8 170.666667-170.666667 170.666667c-12.8 0-29.866667 0-42.666667-4.266667-21.333333-4.266667-46.933333 8.533333-51.2 29.866667-4.266667 21.333333 8.533333 46.933333 29.866667 51.2C725.333333 678.4 746.666667 682.666667 768 682.666667c140.8 0 256-115.2 256-256S908.8 170.666667 768 170.666667zM341.333333 170.666667 213.333333 170.666667c-25.6 0-42.666667 17.066667-42.666667 42.666667s17.066667 42.666667 42.666667 42.666667l128 0c25.6 0 42.666667-17.066667 42.666667-42.666667S366.933333 170.666667 341.333333 170.666667zM768 170.666667l-85.333333 0c-25.6 0-42.666667 17.066667-42.666667 42.666667s17.066667 42.666667 42.666667 42.666667l85.333333 0c25.6 0 42.666667-17.066667 42.666667-42.666667S793.6 170.666667 768 170.666667zM213.333333 170.666667c-119.466667 0-213.333333 93.866667-213.333333 213.333333s93.866667 213.333333 213.333333 213.333333c25.6 0 42.666667-17.066667 42.666667-42.666667S238.933333 512 213.333333 512c-72.533333 0-128-55.466667-128-128s55.466667-128 128-128c25.6 0 42.666667-17.066667 42.666667-42.666667S238.933333 170.666667 213.333333 170.666667zM512-85.333333c-25.6 0-42.666667 17.066667-42.666667 42.666667l0 384c0 25.6 17.066667 42.666667 42.666667 42.666667s42.666667-17.066667 42.666667-42.666667l0-384C554.666667-68.266667 537.6-85.333333 512-85.333333zM512-85.333333c-12.8 0-21.333333 4.266667-29.866667 12.8-17.066667 17.066667-17.066667 42.666667 0 59.733333l128 128c17.066667 17.066667 42.666667 17.066667 59.733333 0s17.066667-42.666667 0-59.733333l-128-128C533.333333-81.066667 524.8-85.333333 512-85.333333zM512-85.333333c-12.8 0-21.333333 4.266667-29.866667 12.8l-128 128c-17.066667 17.066667-17.066667 42.666667 0 59.733333s42.666667 17.066667 59.733333 0l128-128c17.066667-17.066667 17.066667-42.666667 0-59.733333C533.333333-81.066667 524.8-85.333333 512-85.333333z"  horiz-adv-x="1024" />

    
    <glyph glyph-name="upload" unicode="&#59754;" d="M213.333333 469.333333c-25.6 0-42.666667 17.066667-42.666667 42.666667 0 166.4 132.266667 298.666667 298.666667 298.666667 128 0 243.2-85.333333 285.866667-209.066667C759.466667 580.266667 750.933333 554.666667 725.333333 550.4c-21.333333-8.533333-46.933333 4.266667-55.466667 25.6C644.266667 665.6 563.2 725.333333 469.333333 725.333333 349.866667 725.333333 256 631.466667 256 512 256 486.4 238.933333 469.333333 213.333333 469.333333zM768 128c-25.6 0-42.666667 17.066667-42.666667 42.666667s17.066667 42.666667 42.666667 42.666667c93.866667 0 170.666667 76.8 170.666667 170.666667s-76.8 170.666667-170.666667 170.666667c-12.8 0-29.866667 0-42.666667-4.266667-21.333333-4.266667-46.933333 8.533333-51.2 29.866667s8.533333 46.933333 29.866667 51.2C725.333333 635.733333 746.666667 640 768 640c140.8 0 256-115.2 256-256S908.8 128 768 128zM341.333333 128 213.333333 128c-25.6 0-42.666667 17.066667-42.666667 42.666667s17.066667 42.666667 42.666667 42.666667l128 0c25.6 0 42.666667-17.066667 42.666667-42.666667S366.933333 128 341.333333 128zM768 128l-85.333333 0c-25.6 0-42.666667 17.066667-42.666667 42.666667s17.066667 42.666667 42.666667 42.666667l85.333333 0c25.6 0 42.666667-17.066667 42.666667-42.666667S793.6 128 768 128zM213.333333 128c-119.466667 0-213.333333 93.866667-213.333333 213.333333s93.866667 213.333333 213.333333 213.333333c25.6 0 42.666667-17.066667 42.666667-42.666667s-17.066667-42.666667-42.666667-42.666667c-72.533333 0-128-55.466667-128-128s55.466667-128 128-128c25.6 0 42.666667-17.066667 42.666667-42.666667S238.933333 128 213.333333 128zM512-42.666667c-25.6 0-42.666667 17.066667-42.666667 42.666667L469.333333 426.666667c0 25.6 17.066667 42.666667 42.666667 42.666667s42.666667-17.066667 42.666667-42.666667l0-426.666667C554.666667-25.6 537.6-42.666667 512-42.666667zM384 256c-12.8 0-21.333333 4.266667-29.866667 12.8-17.066667 17.066667-17.066667 42.666667 0 59.733333l128 128c17.066667 17.066667 42.666667 17.066667 59.733333 0s17.066667-42.666667 0-59.733333l-128-128C405.333333 260.266667 396.8 256 384 256zM640 256c-12.8 0-21.333333 4.266667-29.866667 12.8l-128 128c-17.066667 17.066667-17.066667 42.666667 0 59.733333s42.666667 17.066667 59.733333 0l128-128c17.066667-17.066667 17.066667-42.666667 0-59.733333C661.333333 260.266667 652.8 256 640 256z"  horiz-adv-x="1024" />

    
    <glyph glyph-name="success" unicode="&#58922;" d="M512 896C229.248 896 0 666.752 0 384 0 101.248 229.248-128 512-128 794.752-128 1024 101.248 1024 384 1024 666.752 794.752 896 512 896ZM432.64 147.754667 197.077333 383.36 287.530667 473.856 432.597333 328.746667 740.394667 636.501333 830.848 546.005333 432.64 147.754667Z"  horiz-adv-x="1024" />

    
    <glyph glyph-name="share" unicode="&#58882;" d="M751.968 271.904c-55.68 0-103.456-31.968-127.392-78.24l-257.216 156.288c10.336 19.872 16.736 42.08 16.736 66.016 0 16.352-3.328 31.776-8.32 46.432L645.28 608c26.368-29.312 64.192-48.096 106.688-48.096 79.552 0 144 64.48 144 144s-64.448 144-144 144c-79.488 0-144-64.48-144-144 0-13.952 2.592-27.168 6.304-39.904l-271.84-146.848c-26.08 26.4-62.272 42.816-102.368 42.816-79.52 0-144-64.48-144-144s64.48-144 144-144c32.064 0 61.408 10.848 85.344 28.576l282.656-171.744c0-0.32-0.096-0.608-0.096-0.864 0-79.52 64.512-144 144-144 79.552 0 144 64.48 144 144S831.52 271.904 751.968 271.904zM751.968 783.904c44.128 0 80-35.904 80-80s-35.872-80-80-80-80 35.904-80 80S707.84 783.904 751.968 783.904zM240.064 335.968c-44.096 0-80 35.904-80 80s35.904 80 80 80 80-35.904 80-80S284.192 335.968 240.064 335.968zM751.968 47.904c-44.128 0-80 35.872-80 80s35.872 80 80 80 80-35.872 80-80S796.096 47.904 751.968 47.904z"  horiz-adv-x="1024" />

    
    <glyph glyph-name="trash3" unicode="&#58912;" d="M436.204518 61.640904l0 493.127229c0 21.003567-16.894174 37.897741-37.897741 37.897741-21.003567 0-37.897741-17.046373-37.897741-37.897741l0-493.127229c0-21.003567 16.894174-37.897741 37.897741-37.897741C419.158145 23.590963 436.204518 40.637337 436.204518 61.640904L436.204518 61.640904 436.204518 61.640904zM360.256837 820.204518l303.486326 0c21.003567 0 37.897741 16.894174 37.897741 37.897741 0 21.003567-16.894174 37.897741-37.897741 37.897741L360.256837 896c-21.003567 0-37.897741-16.894174-37.897741-37.897741C322.359096 837.250892 339.25327 820.204518 360.256837 820.204518L360.256837 820.204518 360.256837 820.204518zM853.384067 630.563615c-21.003567 0-37.897741-16.894174-37.897741-37.897741l0-581.555291c0-41.854935-16.589774-63.467301-58.444709-63.467301L266.958383-52.356718c-41.854935 0-58.444709 21.460166-58.444709 63.467301l0 581.555291c0 21.003567-16.894174 37.897741-37.897741 37.897741-21.003567 0-37.897741-16.894174-37.897741-37.897741l0-151.743163 0-493.127229c0-41.854935 33.940547-75.795482 75.795482-75.795482l606.972652 0c41.854935 0 75.795482 33.940547 75.795482 75.795482l0 493.127229 0 151.743163C891.434007 613.669441 874.387634 630.563615 853.384067 630.563615L853.384067 630.563615 853.384067 630.563615zM967.229489 782.306778l-910.458977 0c-21.003567 0-37.897741-16.894174-37.897741-37.897741 0-21.003567 17.046373-37.897741 37.897741-37.897741l910.458977 0c21.003567 0 37.897741 16.894174 37.897741 37.897741C1005.127229 765.412604 988.233056 782.306778 967.229489 782.306778L967.229489 782.306778 967.229489 782.306778zM663.743163 61.640904l0 493.127229c0 21.003567-16.894174 37.897741-37.897741 37.897741-21.003567 0-37.897741-17.046373-37.897741-37.897741l0-493.127229c0-21.003567 16.894174-37.897741 37.897741-37.897741C646.848989 23.590963 663.743163 40.637337 663.743163 61.640904L663.743163 61.640904 663.743163 61.640904z"  horiz-adv-x="1024" />

    
    <glyph glyph-name="minus" unicode="&#59490;" d="M144.1 330.2c-17.6 0-31.9 14.3-31.9 32l0 43.6c0 17.6 14.3 31.9 31.9 31.9l735.9 0c17.4 0 31.5-14.3 31.5-31.9l0-43.6c0-17.6-14.3-32-32-32L144.1 330.2z"  horiz-adv-x="1024" />

    
    <glyph glyph-name="error" unicode="&#59027;" d="M512.344854 893.792729C231.091192 893.792729 3.091408 665.792944 3.091408 384.539282S231.091192-124.715187 512.344854-124.715187s509.253446 227.999784 509.253446 509.253446S793.598516 893.792729 512.344854 893.792729zM736.192062 229.863481c19.628036-19.672038 19.628036-51.580772 0-71.252811-9.813506-9.836019-22.676465-14.760169-35.538401-14.760169-12.860912 0-25.723871 4.925173-35.538401 14.760169L511.974417 312.254979 358.834598 158.612717c-9.813506-9.836019-22.676465-14.760169-35.531238-14.760169-12.869099 0-25.723871 4.925173-35.538401 14.760169-19.628036 19.672038-19.628036 51.580772 0 71.252811l153.140843 153.648402L287.763936 537.155169c-19.628036 19.672038-19.628036 51.580772 0 71.252811 19.628036 19.664875 51.441603 19.664875 71.069639 0l153.140843-153.642263 153.140843 153.642263c19.635199 19.664875 51.441603 19.664875 71.077825 0 19.628036-19.672038 19.628036-51.580772 0-71.252811L583.051219 383.51393 736.192062 229.863481z"  horiz-adv-x="1024" />

    
    <glyph glyph-name="yanjing" unicode="&#58935;" d="M512 718.1568c-222.7712 0-413.0176-138.56-490.0992-334.144C98.9824 188.416 289.2288 49.8432 512 49.8432c223.0016 0 413.0304 138.5728 490.0992 334.1696C925.0304 579.5968 735.0016 718.1568 512 718.1568L512 718.1568zM512 161.2288c-122.9696 0-222.7712 99.8144-222.7712 222.784 0 122.9696 99.8016 222.7584 222.7712 222.7584 122.9568 0 222.7712-99.7888 222.7712-222.7584C734.7712 261.0432 634.9568 161.2288 512 161.2288L512 161.2288zM512 517.6704c-73.7408 0-133.6576-59.9296-133.6576-133.6576 0-73.7408 59.9296-133.6576 133.6576-133.6576s133.6576 59.9296 133.6576 133.6576C645.6576 457.7408 585.7408 517.6704 512 517.6704L512 517.6704z"  horiz-adv-x="1024" />

    
    <glyph glyph-name="plus" unicode="&#58895;" d="M972.736 435.2 563.2 435.2 563.2 844.8C563.2 873.152 540.224 896 512 896 483.648 896 460.8 873.152 460.8 844.8l0-409.6-409.6 0C22.848 435.2 0 412.224 0 384s22.848-51.264 51.136-51.264l409.6 0 0-409.6C460.8-105.152 483.648-128 512-128c28.224 0 51.2 22.848 51.2 51.136l0 409.6 409.536 0C1001.088 332.736 1024 355.776 1024 384S1001.088 435.2 972.736 435.2z"  horiz-adv-x="1024" />

    
    <glyph glyph-name="More" unicode="&#58889;" d="M146.030911 378.650155m-87.923492 0a87.923492 87.923492 0 1 1 175.846984 0 87.923492 87.923492 0 1 1-175.846984 0ZM512 384m-87.923492 0a87.923492 87.923492 0 1 1 175.846984 0 87.923492 87.923492 0 1 1-175.846984 0ZM873.565802 384m-87.923491 0a87.923492 87.923492 0 1 1 175.846983 0 87.923492 87.923492 0 1 1-175.846983 0Z"  horiz-adv-x="1024" />

    
    <glyph glyph-name="left1" unicode="&#58896;" d="M464.757 408.902c-6.715-6.816-9.592-15.93-9.114-24.853-0.477-9.018 2.4-18.041 9.115-24.951l385.339-358.377c12.468-12.856 33.007-12.854 45.675 0 12.665 12.856 12.664 33.676 0 46.533l-361.93 336.793 361.931 336.692c12.665 12.854 12.665 33.679 0 46.533-12.668 12.863-33.206 12.863-45.675 0l-385.339-358.369zM558.983 47.255l-362.117 336.793 362.117 336.691c12.668 12.854 12.669 33.678 0 46.533-12.668 12.863-33.197 12.863-45.862 0l-385.146-358.369c-6.721-6.816-9.597-15.93-9.211-24.853-0.387-9.018 2.49-18.041 9.211-24.951l385.146-358.377c12.668-12.854 33.194-12.855 45.862 0s12.669 33.678 0 46.535z"  horiz-adv-x="1024" />

    
    <glyph glyph-name="right" unicode="&#58898;" d="M559.243 359.098c6.715 6.816 9.592 15.93 9.114 24.853 0.477 9.018-2.4 18.041-9.115 24.951l-385.339 358.377c-12.468 12.856-33.007 12.854-45.675 0-12.665-12.856-12.664-33.676 0-46.533l361.93-336.793-361.931-336.692c-12.665-12.854-12.665-33.679 0-46.533 12.668-12.863 33.206-12.863 45.675 0l385.339 358.369zM465.017 720.745l362.117-336.793-362.117-336.691c-12.668-12.854-12.669-33.678 0-46.533 12.668-12.863 33.197-12.863 45.862 0l385.146 358.369c6.721 6.816 9.597 15.93 9.211 24.853 0.387 9.018-2.49 18.041-9.211 24.951l-385.146 358.377c-12.668 12.854-33.194 12.855-45.862 0s-12.669-33.678 0-46.535z"  horiz-adv-x="1024" />

    
    <glyph glyph-name="doublearrowright" unicode="&#58888;" d="M128 128h128l256 256-256 256h-128l256-256-256-256zM512 128h128l256 256-256 256h-128l256-256-256-256z"  horiz-adv-x="1024" />

    
    <glyph glyph-name="time" unicode="&#59144;" d="M513.792-64c-247.04 0-448 200.896-448 448s200.96 448 448 448a43.904 43.904 0 0 0 0-87.872C315.264 744.128 153.664 582.528 153.664 384s161.536-360.064 360.128-360.064c114.368 0 219.328 52.48 288.192 144a43.84 43.84 0 1 0 70.272-52.672A444.288 444.288 0 0 0 513.792-64m386.624 299.072a43.84 43.84 0 0 0-42.432 55.36c8.128 30.4 12.288 61.824 12.288 93.568a358.912 358.912 0 0 1-224.832 333.888 44.032 44.032 0 0 0-24.192 57.28 43.84 43.84 0 0 0 57.28 24.192A446.464 446.464 0 0 0 958.208 384c0-39.36-5.12-78.464-15.296-116.352a44.096 44.096 0 0 0-42.496-32.576m-217.92 55.424H510.592a44.032 44.032 0 0 0-43.968 43.968V574.656a43.968 43.968 0 1 0 87.872 0v-196.288h127.936a43.968 43.968 0 0 0 0.064-87.872m0 0z"  horiz-adv-x="1024" />

    
    <glyph glyph-name="paixujian" unicode="&#58928;" d="M372.426917 868.566929c-2.143209 5.143701-5.429462 10.001641-9.572998 14.145177C350.137547 895.428478 331.563071 899.000492 315.560446 893.42815c-3.857776-1.428806-7.42979-3.286253-10.858924-5.715224-2.143209-1.428806-4.000656-3.143373-5.858103-5.00082-1.857448-1.857448-210.034453-210.891736-210.034453-210.891736-17.717192-17.717192-17.717192-46.436189 0-64.0105 17.717192-17.717192 46.436189-17.717192 64.0105 0l132.593178 132.593178v-822.992142c0-25.004102 20.289042-45.293144 45.293144-45.293144s45.293144 20.289042 45.293144 45.293144V850.706856c0 6.000984-1.143045 12.144849-3.572015 17.860073m0 0M935.090642 160.307892c-17.717192 17.717192-46.436189 17.717192-64.0105 0L738.486964 27.714714v822.992142C738.486964 875.710958 718.197922 896 693.19382 896s-45.293144-20.289042-45.293144-45.293144V-82.731974c0-6.000984 1.143045-12.144849 3.572015-17.860073 2.143209-5.143701 5.429462-10.001641 9.572998-14.145177 12.716372-12.716372 31.290847-16.288386 47.293473-10.716044 3.857776 1.285925 7.42979 3.286253 10.858924 5.715223 2.143209 1.428806 4.000656 3.143373 5.858103 5.000821 1.857448 1.857448 210.034453 210.891736 210.034453 210.891736 17.717192 17.860073 17.717192 46.436189 0 64.15338m0 0"  horiz-adv-x="1024" />

    
    <glyph glyph-name="star2" unicode="&#58885;" d="M539.989 833.972l124.297-328.106 353.72-15.576-276.908-218.344 94.327-337.721-295.435 193.124-295.407-193.124 94.327 337.721-276.908 218.344 353.72 15.576 124.269 328.106z"  horiz-adv-x="1088" />

    
    <glyph glyph-name="filter" unicode="&#59213;" d="M985.6 70.4h-256c-19.2 0-38.4-12.8-38.4-38.4s12.8-38.4 38.4-38.4h256c19.2 0 38.4 12.8 38.4 38.4 0 12.8-12.8 38.4-38.4 38.4z m0 204.8h-256c-19.2 0-38.4-12.8-38.4-38.4s12.8-38.4 38.4-38.4h256c19.2 0 38.4 12.8 38.4 38.4 0 12.8-12.8 38.4-38.4 38.4z m0 198.4h-256c-19.2 0-38.4-12.8-38.4-38.4s12.8-38.4 38.4-38.4h256c19.2 0 38.4 12.8 38.4 38.4s-12.8 38.4-38.4 38.4z m-416-588.8c-19.2 0-38.4 12.8-38.4 38.4V492.8c0 6.4 0 19.2 6.4 32L787.2 800H121.6l249.6-275.2c6.4-6.4 6.4-12.8 6.4-32v-345.6l57.6-51.2c19.2-12.8 25.6-32 12.8-51.2-12.8-12.8-38.4-19.2-51.2-6.4L320 96c-6.4 6.4-12.8 12.8-12.8 32V480L12.8 812.8C0 832 0 844.8 0 857.6c6.4 12.8 19.2 19.2 38.4 19.2h838.4c12.8 0 32-6.4 38.4-19.2s0-32-6.4-44.8L614.4 480v-556.8c0-19.2-19.2-38.4-44.8-38.4z"  horiz-adv-x="1024" />

    
    <glyph glyph-name="arrows_left_double-" unicode="&#58963;" d="M538.288 645.712l-24.464 22.624-273.824-272v-22.624l273.824-272 23.536 22.624-260.224 260.688zM753.824 668.336L480 396.336v-22.624l273.824-272 23.536 22.624-260.224 260.688 260 260.688z"  horiz-adv-x="1024" />

    
    <glyph glyph-name="down" unicode="&#58897;" d="M676.8 383.87199999999996a32 32 0 0 0-9.984000000000004-23.231999999999996l-265.6-251.26399999999998a32 32 0 0 0-43.96799999999999 46.528l241.08800000000008 228.03199999999998-241.08799999999997 228.22400000000002a32.064 32.064 0 0 0-1.279999999999994 45.248c12.160000000000004 12.799999999999999 32.448 13.375999999999992 45.248 1.279999999999994l265.5999999999999-251.52a32 32 0 0 0 9.983999999999995-23.296z"  horiz-adv-x="1024" />

    
    <glyph glyph-name="arrow-up" unicode="&#58880;" d="M512.128 548.8c0.003 0 0.006 0 0.008 0 9.137 0 17.379-3.829 23.21-9.97l251.277-265.614c5.415-5.72 8.743-13.464 8.744-21.984 0-17.678-14.33-32.008-32.008-32.008-9.157 0-17.416 3.845-23.25 10.009l-228.045 241.103-228.224-241.088c-5.855-6.165-14.113-10.001-23.266-10.001-8.516 0-16.256 3.32-21.998 8.736-12.784 12.145-13.36 32.434-1.264 45.233l251.52 265.6c5.844 6.155 14.086 9.984 23.223 9.984 0.025 0 0.051 0 0.076 0z"  horiz-adv-x="1024" />

    
    <glyph glyph-name="left" unicode="&#58923;" d="M347.2000000000001 384.12800000000004a32 32 0 0 0 9.983999999999998 23.232l265.6 251.264a32 32 0 0 0 43.968-46.527999999999984l-241.08799999999997-228.0320000000001 241.08800000000005-228.22399999999993a32.064 32.064 0 0 0 1.2800000000000082-45.248c-12.159999999999998-12.800000000000004-32.44799999999999-13.376-45.248-1.2800000000000082l-265.5999999999999 251.51999999999998a32 32 0 0 0-9.984000000000005 23.296z"  horiz-adv-x="1024" />

    
    <glyph glyph-name="xiaoxi-" unicode="&#58883;" d="M1012-51.52L717.12 243.36a390.56 390.56 0 1 1-65.76-69.92L944-119.2z m-912 525.28a302.72 302.72 0 1 0 302.4-302.72A303.04 303.04 0 0 0 99.84 473.76z"  horiz-adv-x="1024" />

    
    <glyph glyph-name="caret-right" unicode="&#58881;" d="M624.8083290000002 102.287781c7.231123000000002-7.238136999999997 15.808877000000004-10.857204999999997 25.712219000000005-10.857204999999993s18.481095999999997 3.619068000000005 25.712219000000005 10.857205000000008l255.9999999999999 256.00000000000006c7.2381369999999965 7.238137000000001 10.857204999999997 15.808877000000004 10.857204999999993 25.712219000000005s-3.619068000000005 18.481095999999997-10.857205000000008 25.712219000000005l-256.00000000000006 255.9999999999999c-7.231123000000002 7.238136999999997-15.808877 10.864218999999991-25.712219000000005 10.864218999999991s-18.481095999999997-3.6260820000000065-25.712218999999994-10.864219000000006c-7.238136999999997-7.231123000000002-10.864218999999991-15.808877-10.864218999999991-25.712219000000005l1.4210854715202004e-13-512C613.94411 118.09665799999982 617.570192 109.5259179999997 624.8083290000002 102.287781z"  horiz-adv-x="1515" />

    
    <glyph glyph-name="bottom" unicode="&#58884;" d="M511.87199999999996 219.20000000000005a32 32 0 0 0-23.232000000000006 9.983999999999988l-251.264 265.6a32 32 0 0 0 46.527999999999956 43.96800000000002l228.03200000000024-241.08799999999982 228.22399999999982 241.08800000000016a32.064 32.064 0 0 0 45.248 1.2800000000000367c12.80000000000001-12.159999999999993 13.376000000000012-32.44799999999998 1.2800000000000367-45.248l-251.51999999999998-265.5999999999999a32 32 0 0 0-23.296-9.98400000000002z"  horiz-adv-x="1024" />

    


  </font>
</defs>
</svg>
